<?xml version="1.0" encoding="UTF-8"?>
<!DOCTYPE svg PUBLIC "-//W3C//DTD SVG 1.1//EN" "http://www.w3.org/Graphics/SVG/1.1/DTD/svg11.dtd">
<!-- Creator: CorelDRAW X7 -->
<svg xmlns="http://www.w3.org/2000/svg" xml:space="preserve" width="2.42859in" height="1.97991in" version="1.1" style="shape-rendering:geometricPrecision; text-rendering:geometricPrecision; image-rendering:optimizeQuality; fill-rule:evenodd; clip-rule:evenodd"
viewBox="0 0 200 163"
 xmlns:xlink="http://www.w3.org/1999/xlink">
 <defs>
  <style type="text/css">
   <![CDATA[
    .str0 {stroke:#16A34A;stroke-width:0.246461}
    .fil0 {fill:#16A34A}
   ]]>
  </style>
 </defs>
 <g id="Layer_x0020_1">
  <metadata id="CorelCorpID_0Corel-Layer"/>
  <path class="fil0 str0" d="M76 32c-10,17 -13,25 -13,46 0,0 -16,-11 -25,-11 -1,0 8,-1 24,9 0,-2 -3,-20 14,-44z"/>
  <path class="fil0 str0" d="M127 41c0,0 3,15 4,22 0,7 0,11 0,11 0,0 21,-8 35,-3 0,0 -14,-7 -33,1 -1,-1 1,-12 -6,-31z"/>
  <path class="fil0 str0" d="M0 74c0,0 28,-22 65,8 0,0 -8,-68 59,-82 0,0 -11,6 -2,36 9,31 5,44 5,44 0,0 35,-20 72,14 0,0 -6,-3 -10,-2 0,0 4,1 5,4 0,0 -9,-6 -16,7 -8,12 -19,44 -36,53 -17,9 -33,9 -49,-1 21,-31 37,-48 72,-55 5,-1 9,-4 8,-9 -1,-5 -5,-8 -9,-7 -5,1 -8,5 -7,10 0,3 -38,12 -68,55 0,0 -25,-61 -58,-72l0 0c-1,-3 -4,-5 -7,-5 -3,1 -5,4 -4,7 0,3 3,5 6,4 20,-8 48,46 56,65 0,0 -25,11 -47,-16 -22,-28 -14,-57 -35,-58zm88 29c-3,-24 -6,-48 7,-71 -2,-1 -3,-3 -4,-5 -1,-4 2,-8 6,-9 5,-1 8,2 9,6 1,4 -2,8 -6,9 -9,2 -8,23 -7,45 1,15 3,27 -3,43 -1,-6 -1,-12 -2,-18z"/>
 </g>
</svg>
